<?xml version="1.0" encoding="utf-8"?>
<!-- Generator: Adobe Illustrator 26.5.0, SVG Export Plug-In . SVG Version: 6.00 Build 0)  -->
<svg version="1.1" id="レイヤー_1" xmlns="http://www.w3.org/2000/svg" xmlns:xlink="http://www.w3.org/1999/xlink" x="0px"
	 y="0px" viewBox="0 0 100 55" style="enable-background:new 0 0 100 55;" xml:space="preserve">
<style type="text/css">
	.st0{fill:#FFFFFF;}
	.st1{fill-rule:evenodd;clip-rule:evenodd;fill:#FFFFFF;}
</style>
<g>
	<path class="st0" d="M0,54.5h2.2V50c0-0.8,0-1.8,0.4-2.3c0.4-0.6,1.1-0.8,1.5-0.8c1.9,0,1.9,2.2,1.9,3v4.6h2.2v-5.1
		c0-0.7,0-2.3-0.9-3.3c-0.8-0.9-2-1.3-2.8-1.3c-1.4,0-2.2,0.8-2.6,1.1v-0.8H0V54.5"/>
	<path class="st1" d="M11.2,49c0.4-1.7,1.8-2.2,2.6-2.2c1.1,0,2.3,0.7,2.5,2.2H11.2 M18.5,50.8c0.1-0.3,0.1-0.7,0.1-1.1
		c0-2.4-1.9-4.9-4.8-4.9c-2.9,0-4.9,2.4-4.9,5.1c0,2.7,2.2,5,4.9,5c2.2,0,4-1.6,4.5-3.3H16c-0.4,0.8-1.2,1.2-2.2,1.2
		c-1.6,0-2.5-1.3-2.6-1.9H18.5z"/>
	<polyline class="st0" points="21.5,54.5 22.9,54.5 24.7,48.4 24.7,48.4 26.4,54.5 27.8,54.5 31.3,45.1 28.9,45.1 27.1,50.9
		27.1,50.9 25.6,45.1 23.8,45.1 22.3,50.9 22.2,50.9 20.5,45.1 18.1,45.1 21.5,54.5 	"/>
	<path class="st1" d="M37.7,49.7c0-1.4,1.1-2.8,2.8-2.8c1.4,0,2.7,1.1,2.7,2.9c0,1.8-1.2,2.9-2.7,2.9C39.2,52.7,37.7,51.8,37.7,49.7
		 M35.6,54.5h2.1v-1.1c0.6,0.6,1.3,1.4,3.2,1.4c3.4,0,4.7-3.2,4.7-5c0-2.5-1.9-5-4.7-5c-1,0-2.1,0.4-2.9,1.2v-4h-2.2V54.5z"/>
	<path class="st1" d="M53.8,49.8c0,1.7-1.2,2.9-2.7,2.9c-1.6,0-2.8-1.3-2.8-2.9c0-1.4,0.9-3,2.8-3C52.4,46.9,53.8,47.9,53.8,49.8
		 M55.9,45.1h-2.1v1.2h0c-0.1-0.1-1.2-1.5-3.1-1.5c-2.6,0-4.7,2.1-4.7,4.9c0,3.1,2.1,5,4.6,5c1.2,0,2.6-0.6,3.3-1.5v1.2h2.1V45.1z"
		/>
	<rect x="57.1" y="42" class="st0" width="2.2" height="12.5"/>
	<path class="st1" d="M67.8,49.8c0,1.7-1.2,2.9-2.7,2.9c-1.6,0-2.8-1.3-2.8-2.9c0-1.4,0.9-3,2.8-3C66.4,46.9,67.8,47.9,67.8,49.8
		 M69.9,45.1h-2.1v1.2h0c-0.1-0.1-1.2-1.5-3.1-1.5c-2.6,0-4.7,2.1-4.7,4.9c0,3.1,2.1,5,4.6,5c1.2,0,2.6-0.6,3.3-1.5v1.2h2.1V45.1z"
		/>
	<path class="st0" d="M71.1,54.5h2.2V50c0-0.8,0-1.8,0.4-2.3c0.4-0.6,1.1-0.8,1.5-0.8c1.9,0,1.9,2.2,1.9,3v4.6h2.2v-5.1
		c0-0.7,0-2.3-0.9-3.3c-0.8-0.9-2-1.3-2.8-1.3c-1.4,0-2.2,0.8-2.6,1.1v-0.8h-2.1V54.5"/>
	<path class="st0" d="M87.4,51.4c-0.6,0.9-1.3,1.3-2.1,1.3c-1.7,0-2.8-1.3-2.8-2.9c0-1.9,1.3-2.9,2.7-2.9c1.4,0,1.9,0.9,2.2,1.4h2.5
		c-1-2.9-3.5-3.4-4.7-3.4c-2.6,0-5,2.1-5,5c0,3.1,2.6,5,5,5c2.2,0,3.9-1.3,4.7-3.4H87.4"/>
	<path class="st1" d="M92.5,49c0.4-1.7,1.8-2.2,2.6-2.2c1.1,0,2.3,0.7,2.5,2.2H92.5 M99.9,50.8c0.1-0.3,0.1-0.7,0.1-1.1
		c0-2.4-1.9-4.9-4.8-4.9c-2.9,0-4.9,2.4-4.9,5.1c0,2.7,2.2,5,4.9,5c2.2,0,4-1.6,4.5-3.3h-2.4c-0.4,0.8-1.2,1.2-2.2,1.2
		c-1.6,0-2.5-1.3-2.6-1.9H99.9z"/>
	<path class="st1" d="M51.8,12.7l3.5-6L67,5.9l0.4-0.7L56.5,4.4L59.1,0l20.2,0c6.2,0,10.8,2.2,9,8.8c-0.5,2-3.1,7-10.5,9
		c1.6,0.2,5.5,1.9,4.8,6.4C81.5,32.2,71.1,36,65.4,36l-23.8,0l-1.2-4.6l12.5-0.9l0.4-0.7l-13.5-0.8l-1.5-5.5l19.3-1.1l0.4-0.7
		l-34.6-2.2l1.7-2.9l37.3-2.4l0.4-0.7L51.8,12.7 M67.4,13.9l3.4,0c2.3,0,4.7-1.1,5.6-3.2c0.8-2-0.3-3.7-1.7-3.6l-3.3,0L67.4,13.9z
		 M63.4,20.8L59.3,28h3.9c1.8,0,5.1-0.9,6.1-3.5c0.9-2.4-0.8-3.7-2-3.7L63.4,20.8z M33.3,31.9L30.9,36l-17.1,0l1.7-2.9L33.3,31.9z
		 M34.5,0l13.8,0l1,3.9l-16.5-1L34.5,0z M50.1,7l1.5,5.7l-23.5-1.5l1.7-2.9L50.1,7z M38.2,23.5l-3,5.2l-16.6-0.9l1.7-2.9L38.2,23.5z
		"/>
</g>
</svg>
